<svg width="178" height="24" viewBox="0 0 178 24" fill="none" xmlns="http://www.w3.org/2000/svg">
<path d="M7.57677 23.5366H4.56515L0 0.449219H2.68458L6.54108 19.9816L17.4974 0.449219H20.5227L7.57677 23.5366Z" fill="#222D37"/>
<path d="M32.0812 0.449219H29.4375V23.5366H32.0812V0.449219Z" fill="#222D37"/>
<path d="M45.8438 0.449219H48.4874V21.2347H59.8798V23.5366H45.8438V0.449219Z" fill="#222D37"/>
<path d="M82.8944 21.2892L74.1593 5.69326V23.5366H71.5156V0.449219H73.8595L82.8944 16.5627L91.9429 0.449219H94.2868V23.5366H91.6431V5.69326L82.8944 21.2892Z" fill="#222D37"/>
<path d="M108.062 0.449219H122.644V2.76477H110.693V10.6376H122.344V12.9532H110.693V21.2347H122.78V23.5366H108.062V0.449219Z" fill="#222D37"/>
<path d="M164.591 17.1759C165.082 19.9818 166.963 21.8615 170.206 21.8615C173.449 21.8615 175.48 19.9137 175.48 17.4484C175.48 14.983 173.858 13.7571 171.46 13.0624L168.584 12.2316C165.191 11.2372 162.779 9.46652 162.779 6.1294C162.779 2.43814 165.886 0 169.933 0C173.981 0 176.761 2.69693 177.06 6.26561H174.648C174.349 3.85471 172.631 2.13848 169.892 2.13848C167.153 2.13848 165.3 3.62316 165.3 6.0613C165.3 8.49943 167.017 9.33031 169.456 10.0114L172.195 10.8422C175.793 11.8638 178.001 13.7162 178.001 17.2713C178.001 21.235 174.662 24 170.151 24C165.641 24 162.656 21.235 162.07 17.1759H164.578H164.591Z" fill="#222D37"/>
<path d="M143.908 13.9339C147.737 13.9339 149.808 11.1961 149.808 8.29485C149.808 5.3936 147.737 2.72391 143.908 2.72391H138.034V13.9339H143.908ZM143.185 16.2494H138.034V23.5366H135.391V0.449219H144.167C149.113 0.449219 152.411 4.07238 152.411 8.29485C152.411 11.9589 149.931 15.187 146.115 16.0179L153.065 23.5366H149.917L143.185 16.2494Z" fill="#222D37"/>
</svg>
